<svg width="168" height="90" viewBox="0 0 168 90" fill="none" xmlns="http://www.w3.org/2000/svg">
<path d="M53.0997 57.4087C53.0997 56.3326 52.8786 55.5785 52.4365 55.1464C51.9944 54.7143 51.1951 54.5024 50.0387 54.5024H46.7567V64.1785H48.8823V60.2895H50.0472H50.1663C50.8465 60.2895 51.3311 60.2386 51.6287 60.1454C51.9263 60.0522 52.1814 59.8912 52.4025 59.6625C52.6321 59.4337 52.8021 59.1287 52.9212 58.7389C53.0402 58.3576 53.0997 57.917 53.0997 57.4087ZM50.7189 58.4424C50.5234 58.6372 50.1323 58.7389 49.5371 58.7389H48.8653V56.0276H49.7241C50.2258 56.0276 50.5659 56.1208 50.7445 56.3157C50.9315 56.5105 51.0165 56.8579 51.0165 57.3578C51.008 57.8831 50.9145 58.2475 50.7189 58.4424Z" fill="#005BAA"/>
<path d="M55.4292 54.5109L52.6743 64.1785H54.7405L55.2507 62.0349H58.0821L58.6093 64.1785H60.7605L58.0396 54.5024H55.4292V54.5109ZM55.6248 60.5437L56.6962 56.358L57.708 60.5437H55.6248Z" fill="#005BAA"/>
<path d="M64.1276 54.511H62.121V64.1871H64.1276V54.511Z" fill="#005BAA"/>
<path d="M74.3565 60.8657H72.2903C72.2903 60.908 72.2903 60.9673 72.2988 61.0436C72.2988 61.1114 72.3073 61.1707 72.3073 61.2046C72.3073 61.7468 72.2223 62.1451 72.0608 62.4162C71.8907 62.6789 71.6441 62.8144 71.3125 62.8144C70.8449 62.8144 70.5218 62.5941 70.3432 62.1535C70.1646 61.713 70.0711 60.8318 70.0711 59.51C70.0711 57.934 70.1561 56.9257 70.3347 56.4936C70.5133 56.0615 70.8278 55.8412 71.287 55.8412C71.6186 55.8412 71.8652 55.9683 72.0352 56.214C72.1968 56.4597 72.2818 56.841 72.2818 57.3579V57.5443H74.331V57.3579C74.331 56.375 74.0759 55.6294 73.5742 55.138C73.0726 54.6381 72.3243 54.3923 71.338 54.3923C70.7343 54.3923 70.2072 54.4855 69.7565 54.6804C69.3059 54.8668 68.9572 55.1464 68.7192 55.5108C68.4726 55.8666 68.3025 56.3157 68.2005 56.858C68.073 57.3833 68.0219 58.1374 68.0219 59.1118C68.0219 60.5352 68.107 61.5604 68.277 62.1959C68.4471 62.8314 68.7277 63.3228 69.1358 63.6617C69.3739 63.8651 69.68 64.0261 70.0711 64.1447C70.4622 64.2633 70.8874 64.3226 71.338 64.3226C72.3158 64.3226 73.0726 64.06 73.5913 63.5346C74.1184 63.0093 74.382 62.2722 74.382 61.3063C74.382 61.1792 74.382 61.0944 74.382 61.0266C74.3735 60.9758 74.365 60.9165 74.3565 60.8657Z" fill="#005BAA"/>
<path d="M79.9005 58.2899H77.6728V54.511H75.6237V64.1786H77.6728V59.9083H79.9005V64.1786H81.9412V54.511H79.9005V58.2899Z" fill="#005BAA"/>
<path d="M85.9288 54.5109L83.1654 64.1785H85.2316L85.7418 62.0349H88.5732L89.1004 64.1785H91.2431L88.5222 54.5024H85.9288V54.5109ZM86.1159 60.5437L87.1872 56.358L88.1991 60.5437H86.1159Z" fill="#005BAA"/>
<path d="M94.6187 54.511H92.6121V64.1871H94.6187V54.511Z" fill="#005BAA"/>
<path d="M103.47 60.3743C103.47 61.408 103.376 62.0943 103.189 62.4247C103.002 62.7552 102.671 62.9246 102.186 62.9246C101.684 62.9246 101.344 62.7806 101.157 62.4755C100.97 62.179 100.876 61.4757 100.876 60.3743V54.511H98.8358V60.8996C98.8358 62.0943 99.1079 62.9754 99.6436 63.5431C100.179 64.1108 101.021 64.3989 102.169 64.3989C103.359 64.3989 104.21 64.1108 104.728 63.5262C105.247 62.9416 105.502 61.9756 105.502 60.62V54.511H103.478V60.3743H103.47Z" fill="#005BAA"/>
<path d="M118.418 54.511H116.411V64.1871H118.418V54.511Z" fill="#005BAA"/>
<path d="M123.111 61.4588L121.47 54.511H119.464L121.904 64.1786H124.31L126.751 54.511H124.744L123.111 61.4588Z" fill="#005BAA"/>
<path d="M112.508 61.2893L110.026 54.511H109.26H108.299H107.262V64.1786H109.26V57.1376L111.845 64.1786H112.508H113.571H114.515V54.511H112.508V61.2893Z" fill="#005BAA"/>
<path d="M127.915 64.1786H133.153V62.6281H129.982V59.815H133.153V58.3153H129.982V56.0107H133.153V54.511H127.915V64.1786Z" fill="#005BAA"/>
<path d="M140.908 61.4164C140.925 60.6707 140.857 59.6794 139.403 59.3913C140.763 59.0778 140.891 57.7306 140.891 56.985C140.891 56.0445 140.61 55.4006 140.176 55.0362C139.743 54.6804 138.935 54.5024 137.736 54.5024H134.828V64.1785H136.877V60.1963H137.736C138.136 60.1963 138.416 60.2979 138.586 60.4928C138.756 60.6877 138.875 61.0266 138.858 61.5096C138.841 62.0603 138.807 63.4922 139.028 64.187H141.154C140.831 63.3058 140.891 62.001 140.908 61.4164ZM138.535 58.3746C138.323 58.5779 137.932 58.6796 137.379 58.6796H136.869V56.0276H137.413C137.983 56.0276 138.357 56.1208 138.552 56.2987C138.748 56.4766 138.85 56.8156 138.85 57.307C138.858 57.8069 138.748 58.1712 138.535 58.3746Z" fill="#005BAA"/>
<path d="M146.222 58.6287C145.091 57.9508 144.496 57.4086 144.496 56.8155C144.496 56.3918 144.7 55.8495 145.524 55.8495C146.409 55.8495 146.511 56.8409 146.511 57.2899H148.526V57.0866C148.526 56.0868 148.194 54.3837 145.524 54.3498C142.838 54.3159 142.489 56.1207 142.489 56.9341C142.489 58.6033 143.756 59.2048 145.125 60.1538C146.111 60.8401 146.587 61.0519 146.587 61.6874C146.587 62.5347 145.882 62.8312 145.516 62.8312C144.164 62.8312 144.326 61.5942 144.326 61.1451H142.319C142.319 61.1451 142.319 61.2383 142.319 61.3231C142.319 64.1022 144.258 64.3479 145.516 64.3479C148.075 64.3479 148.594 62.7211 148.594 61.6959C148.611 61.0096 148.645 60.0775 146.222 58.6287Z" fill="#005BAA"/>
<path d="M152.055 54.511H150.048V64.1871H152.055V54.511Z" fill="#005BAA"/>
<path d="M152.795 56.087H155.116V64.1786H157.224V56.087H159.571V54.511H152.795V56.087Z" fill="#005BAA"/>
<path d="M164.996 54.511L163.423 58.5441L162.003 54.511H159.733L162.284 60.5437V64.1786H164.375V60.5437L167.13 54.511H164.996Z" fill="#005BAA"/>
<path d="M48.2274 43.7672H56.9938C57.793 43.7502 58.4392 43.0978 58.4392 42.2929V29.0327H55.3187V34.6418H49.9025V29.0327H46.782V42.2929C46.7735 43.0893 47.4197 43.7502 48.2274 43.7672ZM49.9025 37.0735H55.3187V41.3015H49.9025V37.0735V37.0735Z" fill="#005BAA"/>
<path d="M166.093 46.9361V29.4141H148.407V31.9221H162.683V45.8431H159.631L159.622 39.0309H156.255V45.8431H153.832V39.0309H150.456V45.8431H147.123V48.3511H164.715C165.464 48.3172 166.076 47.6987 166.093 46.9361Z" fill="#005BAA"/>
<path d="M142.336 34.7606H145.091V32.2526H142.336V29.0244H138.926V40.7933H124.336V43.3013H138.926V49.5882H141.069C141.783 49.4781 142.328 48.868 142.328 48.1309V34.7606H142.336Z" fill="#005BAA"/>
<path d="M115.416 34.5655H113.809V29.0327H110.629V41.9031H102.645V31.5407H108.852V29.0327H99.21V42.6064C99.21 43.2757 99.3461 43.7587 99.6182 44.0552C99.8732 44.2925 100.29 44.4111 100.851 44.4111H110.621V49.5965H112.355C113.155 49.5796 113.801 48.9187 113.801 48.1223V37.1244H115.408V49.605H117.176V49.5965C117.993 49.5965 118.656 48.9357 118.656 48.1223V29.0327H115.399V34.5655H115.416Z" fill="#005BAA"/>
<path d="M68.2684 29.0327H65.0204V34.574H63.4134V29.0327H60.2333V49.5965H61.9594C62.7587 49.5796 63.4049 48.9187 63.4049 48.1223V37.1244H65.0119V49.605H66.7805V49.5965C67.5967 49.5965 68.2599 48.9357 68.2599 48.1223V29.0327H68.2684Z" fill="#005BAA"/>
<path d="M123.571 34.9216C123.571 37.6837 126.223 39.9206 129.488 39.9206C132.762 39.9206 135.415 37.6837 135.415 34.9216C135.415 33.8794 135.041 32.905 134.386 32.1085H136.384V29.7531H131.317V27.8721H127.686V29.7531H122.627V32.1085H124.591C123.953 32.905 123.571 33.8709 123.571 34.9216ZM129.497 31.9899C131.044 31.9899 132.303 33.2778 132.303 34.8622C132.303 36.4467 131.044 37.7346 129.497 37.7346C127.949 37.7346 126.691 36.4467 126.691 34.8622C126.691 33.2693 127.949 31.9899 129.497 31.9899Z" fill="#005BAA"/>
<path d="M89.5341 48.1138V37.1244H91.1412V49.605H92.9097V49.5965C93.726 49.5965 94.3892 48.9357 94.3892 48.1223V29.0327H91.1327V34.574H89.5256V29.0327H86.3456V49.5965H88.0802C88.8879 49.5796 89.5341 48.9187 89.5341 48.1138Z" fill="#005BAA"/>
<path d="M78.8375 39.8018C79.4327 41.0982 80.351 42.1488 81.5924 42.9538C82.7232 43.6994 83.9987 44.1654 85.4101 44.3603V41.5981C83.7946 40.9965 80.6316 40.056 80.5125 31.6254H84.7299V29.0327H72.9536V31.6254H77.1624C77.0434 40.056 73.8889 40.988 72.2649 41.5981V44.3603C73.6763 44.1739 74.9517 43.6994 76.0826 42.9538C77.324 42.1488 78.2423 41.0982 78.8375 39.8018Z" fill="#005BAA"/>
<path d="M26.6221 25.364C23.3911 25.364 20.3556 24.4997 17.7453 23C15.1349 24.5082 12.1079 25.364 8.86838 25.364C5.63733 25.364 2.61035 24.5082 0 23V38.7173C0 50.7065 6.73418 61.1282 16.6399 66.4323C17.0055 66.6272 17.3711 66.8136 17.7453 67C18.1194 66.8221 18.485 66.6272 18.8506 66.4323C28.7648 61.1282 35.499 50.7065 35.499 38.7173V23C32.8887 24.5082 29.8532 25.364 26.6221 25.364ZM1.8536 38.7512H11.8699V42.6488L4.03881 50.4523C2.62735 47.0547 1.8536 43.3266 1.8536 39.4206V38.7512V38.7512ZM17.7453 65.2037C15.0074 63.8142 12.5161 62.0094 10.3564 59.8658L17.7878 52.4604L25.1597 59.8319C23.0085 61.984 20.5087 63.8057 17.7453 65.2037ZM31.4857 50.393L23.7057 42.6233V38.7512H33.6539V39.4206C33.6454 43.3012 32.8802 47.0039 31.4857 50.393Z" fill="#005BAA"/>
<path d="M23.6973 38.7512H33.6455V39.4206C33.6455 43.3012 32.8717 47.0123 31.4773 50.393L23.6973 42.6234V38.7512V38.7512Z" fill="white"/>
<path d="M25.168 59.8319C23.0083 61.9925 20.5 63.8142 17.7451 65.2038C15.0072 63.8142 12.5159 62.0095 10.3562 59.8658L17.7876 52.4604L25.168 59.8319Z" fill="white"/>
<path d="M11.8699 38.7512V42.6488L4.03884 50.4524C2.62739 47.0547 1.85364 43.3266 1.85364 39.4206V38.7512H11.8699Z" fill="white"/>
<path d="M23.6462 31.6593C23.6462 34.9044 21.0019 37.5395 17.7453 37.5395C14.4888 37.5395 11.8444 34.9044 11.8444 31.6593C11.8444 28.4141 14.4888 25.7791 17.7453 25.7791C21.0104 25.7791 23.6462 28.4141 23.6462 31.6593Z" fill="white"/>
<path d="M23.0341 31.6594C23.0341 28.7701 20.6959 26.4231 17.8049 26.3977C17.7879 26.3977 17.7539 26.3977 17.7539 26.3977C14.8375 26.3977 12.4737 28.7532 12.4737 31.6594C12.4737 34.5233 14.7609 36.8448 17.6179 36.9211C17.6689 36.9211 17.7709 36.9211 17.7709 36.9211C20.6704 36.9211 23.0341 34.5656 23.0341 31.6594ZM13.1114 31.6594C13.1114 29.2107 15.016 27.2111 17.4308 27.0501V30.7443H18.06V27.0671C19.0888 27.2281 19.9221 28.1347 19.9221 29.2022C19.9221 30.3715 18.9103 31.3374 17.7454 31.3374C16.1894 31.3374 14.9395 32.5745 14.9395 34.125C14.9395 34.6842 15.101 35.2011 15.3816 35.6332C14.0212 34.8198 13.1114 33.3455 13.1114 31.6594ZM18.06 36.2687V32.566H17.4308V36.2517C16.402 36.0908 15.5602 35.1841 15.5602 34.125C15.5602 32.9558 16.5805 31.9814 17.7539 31.9814C19.3014 31.9814 20.5598 30.7528 20.5598 29.2022C20.5598 28.6515 20.3983 28.1347 20.1177 27.6941C21.4696 28.499 22.3794 29.9733 22.3794 31.6594C22.3794 34.1081 20.4748 36.1077 18.06 36.2687Z" fill="#ED1C24"/>
</svg>
